<svg id="Layer_1" data-name="Layer 1" xmlns="http://www.w3.org/2000/svg" viewBox="0 0 1813.25 1563.64"><defs><style>.cls-1{fill:#0d62d7;}.cls-2{fill:#668ec5;}.cls-3{fill:#fff;}</style></defs><title>Watermark IG vector</title><path class="cls-1" d="M93.37,1348.76a15.1,15.1,0,0,1,3.92-4.34c14.41-13.18,28.14-27.06,41.51-41.27,13.81-14.68,27.22-29.74,40.8-44.63q16.34-17.91,32.67-35.81c4.22-4.6,8.27-9.33,12.2-14.19a17.46,17.46,0,0,0,3.54-15.31q-3.39-16.44-6.84-32.86c-3.79-17.82-7.72-35.62-10.63-53.61-1.67-10.25-2.88-20.57-4.25-30.87-1.6-12.06-2.61-24.17-3.39-36.3-.75-11.65-1.44-23.31-1.39-35,0-11.2-.07-22.4.29-33.59.4-12.63,1.26-25.23,2.34-37.83.92-10.83,1.94-21.66,3.3-32.44,1.45-11.58,3-23.15,4.9-34.67q4.86-29.81,12-59.18c13-53.32,32-104.47,55.69-153.92a665.59,665.59,0,0,1,41.55-73.43q20.7-32,42.48-63.36a177,177,0,0,1,20.51-24.7C396,480.2,406.5,468.13,417,456.05a380.68,380.68,0,0,1,39.19-38.79,1070.66,1070.66,0,0,1,91.7-71.18c40-27.54,82.74-50.32,127.41-69.43A753.05,753.05,0,0,1,801.7,235q31.54-7.3,63.53-12.29,23.94-3.69,48.07-5.8A766.43,766.43,0,0,1,1003,214.5q23.73.66,47.41,2.79c87.58,7.85,171.44,29.77,251.39,66.49,31.27,14.36,61.8,30.11,91,48.31,23.39,14.56,45.57,30.83,67.14,47.92q39.52,31.31,76,66.09a373.9,373.9,0,0,1,37.27,41.29q17.24,22.16,34.49,44.3a508.63,508.63,0,0,1,42.39,63.92q8.6,15.25,17.22,30.49a74.56,74.56,0,0,0,4.36,6.88,19.6,19.6,0,0,0,16.81,8.6c5.28,0,10.56-.24,15.83-.21,10.08.06,20.16,0,30.23.42,34.22,1.41,68.46.8,102.69.9,19.19.06,38.39-.12,57.59-.09,3.93,0,7.86.48,11.79.73,0,1.39-.89,1.57-1.54,1.91-6.5,3.44-12.95,7-19.54,10.25-10.9,5.4-21.56,11.2-32,17.52-14.35,8.71-29.11,16.76-43,26.15l-2,1.34c-23.85,16.15-23.85,16.15-45.18,35.55-1.65,1.5-3.23,3.11-5,4.5-3.72,2.93-6.34,6.69-8.72,10.71-9,15.22-12.25,31.74-11.66,49.24.45,13.17,3,26,5.62,38.87,3.8,18.31,8.17,36.49,11.54,54.89a406.13,406.13,0,0,1,5.5,40.37c.47,5.75.72,11.49,1,17.25.13,3.19.57,6.36.77,9.55.6,9.75.53,19.49.32,29.25-.34,15.35-.17,30.72-.55,46.07q-.51,20.85-2.35,41.66c-.95,10.68-2,21.34-3.38,32q-3.29,25.44-8.17,50.64a790.21,790.21,0,0,1-24.71,95.56,742.65,742.65,0,0,1-87.6,180.71c-23.48,35.4-49.31,68.94-78.31,100-15.62,16.74-32.12,32.58-49.25,47.75a760.34,760.34,0,0,1-310,167.17q-33.6,9-67.86,15c-15.75,2.77-31.58,5.08-47.48,6.7q-24.35,2.49-48.81,3.34c-15,.51-30.06.78-45.09.4-17.27-.44-34.53-1-51.76-2.27-8.77-.66-17.54-1.26-26.3-2.06a432.31,432.31,0,0,1-48.86-7.08c-27.54-5.71-54.89-12.25-82-19.91-51.66-14.62-101.74-33.3-149.73-57.47a784.94,784.94,0,0,1-106-64.57q-23-16.56-45.11-34.21a255.75,255.75,0,0,1-25.7-23.76c-10.25-10.8-20.89-21.18-32.14-30.94a165.56,165.56,0,0,1-19.06-19.58c-20.77-25.18-41.26-50.57-60-77.29-10.68-15.19-20.39-31-30.13-46.79-5.95-9.67-12-19.3-17.93-29-1-1.63-1.91-3.33-2.88-5-1.13-1.93-2.33-3.82-3.42-5.78-1.65-3-4-4.09-7.47-4-12.31.36-24.62.43-36.94.57-13.27.15-26.55.22-39.83.38q-26.14.31-52.29.73c-12.64.22-25.27,0-37.9-.43C107.15,1349,100.6,1348.91,93.37,1348.76Zm1463.14,26.88v.07c25,0,49.91-.08,74.87.06,7.78,0,13.11-3.47,16.54-10.13,5.21-10.08,10.13-20.31,15.55-30.29,5.28-9.69,9.92-19.7,14.46-29.75,2.56-5.68,5.18-11.34,7.47-17.13,5.12-12.91,10.29-25.79,15-38.86q6.9-19.15,12.69-38.67c4.93-16.49,9.4-33.13,13-50q2.91-13.8,5.66-27.61c.72-3.59,1.34-7.2,1.94-10.81.78-4.72,1.52-9.43,2.23-14.16.88-5.82,1.75-11.64,2.53-17.47.49-3.63.77-7.29,1.21-10.93.51-4.1,1.37-8.18,1.56-12.3.25-5.58,1.56-11.08,1.18-16.7a5.76,5.76,0,0,1,.12-1.43c1.15-6.78,1-13.66,1.59-20.48.42-4.77-.24-9.65.38-14.37a103.36,103.36,0,0,0,.62-12.9c0-9.28,0-18.55,0-27.83a17,17,0,0,0-.2-4.3,30.12,30.12,0,0,1-.62-7.62c-.08-4.32.24-8.68-.29-12.94-.91-7.29-.9-14.63-1.64-21.92-.44-4.28-.93-8.55-1.27-12.85-.53-6.65-1.8-13.24-2.51-19.88-.24-2.23-.88-4.4-1-6.61-.21-5.76-1.66-11.35-2.35-17-.8-6.62-2.25-13.17-3.53-19.74-1.7-8.75-3.37-17.51-5.29-26.22-2.1-9.49-4.49-18.92-7-28.32q-5-19-11.19-37.61c-7.88-23.79-15.46-47.69-24.49-71.09q-5.43-14.1-11.86-27.74c-3.06-6.5-6.31-12.92-10-19.13a241.68,241.68,0,0,0-15.45-23.64,24.39,24.39,0,0,0-6.28-5.86c-3.76-2.4-8-2-12.07-2.11-2.33-.07-4.77.26-7.15.26q-59,.06-118.06.07c-6.72,0-13.44.13-20.16,0-8.27-.18-15.17-3.23-20.19-10.07-1.8-2.44-3.8-4.73-5.79-7-3-3.49-6.29-6.81-9.19-10.41-5-6.23-10.88-11.68-16.16-17.68-5.07-5.76-11-10.64-16.58-15.94-6-5.73-12.26-11.19-18.52-16.65-7.58-6.61-15.42-12.91-23.32-19.11-11.55-9.07-23.5-17.62-35.69-25.82-7.42-5-15.07-9.63-22.57-14.49-9.93-6.43-20.18-12.35-30.64-17.81-16.43-8.58-33-17-50-24.29q-19.59-8.42-39.68-15.53c-14.89-5.29-30-10-45.29-13.91-8.34-2.1-16.67-4.31-25.07-6.18-9-2-18.09-3.7-27.15-5.46-4.22-.83-8.46-1.6-12.71-2.23-5.51-.81-11-1.44-16.57-2.17-6.63-.87-13.24-1.89-19.88-2.59-7-.73-14-1.47-20.94-1.78-7.65-.34-15.26-1.44-22.94-1.23-4.32.12-8.64,0-13-.06a23,23,0,0,1-6.66-.55,6.37,6.37,0,0,0-3.79.06,17,17,0,0,1-4.76.5c-8.13.24-16.25,0-24.4.79s-16.19,1.26-24.29,2c-6.34.57-12.67,1.25-19,1.94-5.7.63-11.4,1.19-17.08,2-8.2,1.12-16.38,2.32-24.54,3.73q-16,2.76-31.84,6.43c-15.08,3.49-29.95,7.8-44.66,12.62q-24.35,8-47.93,18.06c-9.11,3.91-18.19,7.84-27.08,12.22-13.19,6.49-26.34,13.06-39.1,20.41-9.68,5.58-19.33,11.22-28.74,17.25-13.73,8.78-27.12,18-40.09,27.9q-9.52,7.24-18.81,14.81c-5.07,4.14-10,8.47-14.9,12.78-5.29,4.62-10.65,9.17-15.71,14-7.4,7.08-14.5,14.46-21.84,21.6-6.88,6.69-13.08,14-19.72,20.94-.55.57-1,1.27-1.49,1.87-3.25,3.73-6.4,7.55-9.79,11.14a16,16,0,0,1-11.11,5c-5.9.23-11.79.8-17.68.86-20.63.21-41.27.09-61.91.08a17.51,17.51,0,0,1-4.29-.25,22.7,22.7,0,0,0-6.19-.5c-8.13.2-16.26.06-24.41.55a170.36,170.36,0,0,1-26.81-.39c-7.45-.72-15-.35-22.54-.13a17.48,17.48,0,0,0-9.4,3.13,20.43,20.43,0,0,0-6.49,7.54c-5.33,9.83-10.73,19.64-15.74,29.63-4.88,9.71-9.37,19.61-13.93,29.46-3.15,6.82-6.34,13.62-9.17,20.57-6.56,16.12-12.89,32.32-18.37,48.85-4.38,13.18-8.77,26.36-12.46,39.75-3.26,11.83-6.43,23.7-9,35.71-1.65,7.79-3.34,15.58-4.87,23.39-1.43,7.34-2.6,14.74-4,22.09-1.12,5.78-1.92,11.61-2.68,17.45-.43,3.32-.89,6.63-1.33,9.94-.5,3.79-1.11,7.56-1.47,11.36-.4,4.12-.67,8.3-1.3,12.35-.8,5.22-.49,10.49-1.45,15.7-.72,3.88-.54,7.93-.92,11.9-.64,6.66-.07,13.41-1.12,20.07,0,18.07-.07,36.15,0,54.23,0,4.29.3,8.58.65,12.88.52,6.51.83,13,1.12,19.58.24,5.43,1.48,10.77,1.2,16.22,1.14,3.08.63,6.34,1.08,9.49.53,3.78,1.14,7.55,1.64,11.34.45,3.47.65,7,1.21,10.44,1.46,9,2.93,17.91,4.64,26.81,1.93,10,3.92,20,6.24,29.94,2.84,12.11,6,24.14,9.6,36,4.31,14.23,9.37,28.18,14.57,42.07,3.76,10,7.74,19.95,11.77,29.85,4.32,10.65,8.79,21.24,13.26,31.83,2.49,5.88,5.12,11.7,7.68,17.56q4.5,10.3,9,20.64c2.87,6.58,5.72,13.18,8.63,19.75,2.2,5,4.48,9.89,6.73,14.83a13.33,13.33,0,0,0,7.19,6.7c3.31,1.5,6.77,1.63,10.31,1.63q53.75-.08,107.5-.09c16.16,0,32.32.07,48.47.08a22.84,22.84,0,0,1,6.14.79,27.39,27.39,0,0,1,12.57,7.55c9.45,9.77,19.2,19.22,28.42,29.23,9,9.76,18.7,18.84,28,28.34,4.7,4.81,9.78,9.2,14.87,13.56,7.62,6.55,15.54,12.76,23.49,18.91,11.48,8.89,23.16,17.54,35.26,25.58,6.79,4.51,13.76,8.73,20.59,13.16,9.92,6.44,20.17,12.35,30.63,17.83,18,9.42,36.11,18.54,54.93,26.22,19.08,7.78,38.39,14.9,58.14,20.8,5.19,1.55,10.41,3,15.66,4.39,10,2.55,20.09,5.07,30.18,7.4,6.67,1.54,13.42,2.79,20.14,4.06,5,1,10,1.75,15.07,2.56,4.87.79,9.74,1.57,14.63,2.21,3.63.49,7.34.51,10.92,1.19,3.17.61,6.41.39,9.49,1.08,4.87,1.09,9.85.53,14.74,1.47,3.71.71,7.61.56,11.42.91,7,.64,14,.7,21,1,12.78.5,25.59.15,38.39.14a14.25,14.25,0,0,0,3.82-.2c2.52-.72,5.07-.57,7.61-.63,3.52-.1,7.1.22,10.54-.35,5.85-1,11.77-.5,17.61-1.53,4.22-.75,8.58-.7,12.84-1.24,5.84-.75,11.63-1.95,17.47-2.54,7.15-.73,14.2-2,21.24-3.33,11.58-2.13,23.13-4.52,34.58-7.37,16.88-4.19,33.67-8.68,50.21-14.06q21.65-7,42.79-15.45c15.45-6.14,30.58-13,45.54-20.17,9.5-4.57,18.73-9.68,27.95-14.81,11.31-6.29,22.34-13,33.21-20,8.32-5.37,16.39-11.1,24.46-16.84,10.55-7.5,20.68-15.52,30.72-23.66,7.68-6.22,15.09-12.8,22.39-19.48s14.63-13.84,21.83-20.88c2.85-2.78,5.38-5.89,8.13-8.78,3.19-3.37,6.74-6.44,9.62-10.05,3.29-4.13,7.31-7.58,10.42-11.88,2-2.83,4.59-5.31,6.86-8,5.52-6.51,12.33-9.36,21.06-9.23C1508.2,1375.87,1532.36,1375.64,1556.51,1375.64Z" transform="translate(-93.37 -214.14)"/><path class="cls-2" d="M1556.51,1375.64c-24.15,0-48.31.23-72.46-.12-8.73-.13-15.54,2.72-21.06,9.23-2.27,2.68-4.81,5.16-6.86,8-3.11,4.3-7.13,7.75-10.42,11.88-2.88,3.61-6.43,6.68-9.62,10.05-2.75,2.89-5.28,6-8.13,8.78-7.2,7-14.4,14.09-21.83,20.88s-14.71,13.26-22.39,19.48c-10,8.14-20.17,16.16-30.72,23.66-8.07,5.74-16.14,11.47-24.46,16.84-10.87,7-21.9,13.76-33.21,20-9.22,5.13-18.45,10.24-27.95,14.81-15,7.21-30.09,14-45.54,20.17q-21.16,8.42-42.79,15.45c-16.54,5.38-33.33,9.87-50.21,14.06-11.45,2.85-23,5.24-34.58,7.37-7,1.29-14.09,2.6-21.24,3.33-5.84.59-11.63,1.79-17.47,2.54-4.26.54-8.62.49-12.84,1.24-5.84,1-11.76.55-17.61,1.53-3.44.57-7,.25-10.54.35-2.54.06-5.09-.09-7.61.63a14.25,14.25,0,0,1-3.82.2c-12.8,0-25.61.36-38.39-.14-7-.27-14-.33-21-1-3.81-.35-7.71-.2-11.42-.91-4.89-.94-9.87-.38-14.74-1.47-3.08-.69-6.32-.47-9.49-1.08-3.58-.68-7.29-.7-10.92-1.19-4.89-.64-9.76-1.42-14.63-2.21-5-.81-10.06-1.61-15.07-2.56-6.72-1.27-13.47-2.52-20.14-4.06-10.09-2.33-20.14-4.85-30.18-7.4-5.25-1.34-10.47-2.84-15.66-4.39-19.75-5.9-39.06-13-58.14-20.8-18.82-7.68-37-16.8-54.93-26.22-10.46-5.48-20.71-11.39-30.63-17.83-6.83-4.43-13.8-8.65-20.59-13.16-12.1-8-23.78-16.69-35.26-25.58-7.95-6.15-15.87-12.36-23.49-18.91-5.09-4.36-10.17-8.75-14.87-13.56-9.28-9.5-19-18.58-28-28.34-9.22-10-19-19.46-28.42-29.23a27.39,27.39,0,0,0-12.57-7.55,22.84,22.84,0,0,0-6.14-.79c-16.15,0-32.31-.08-48.47-.08q-53.74,0-107.5.09c-3.54,0-7-.13-10.31-1.63a13.33,13.33,0,0,1-7.19-6.7c-2.25-4.94-4.53-9.87-6.73-14.83-2.91-6.57-5.76-13.17-8.63-19.75q-4.5-10.32-9-20.64c-2.56-5.86-5.19-11.68-7.68-17.56-4.47-10.59-8.94-21.18-13.26-31.83-4-9.9-8-19.83-11.77-29.85-5.2-13.89-10.26-27.84-14.57-42.07-3.62-11.91-6.76-23.94-9.6-36-2.32-9.92-4.31-19.93-6.24-29.94-1.71-8.9-3.18-17.86-4.64-26.81-.56-3.46-.76-7-1.21-10.44-.5-3.79-1.11-7.56-1.64-11.34-.45-3.15.06-6.41-1.08-9.49.28-5.45-1-10.79-1.2-16.22-.29-6.53-.6-13.07-1.12-19.58-.35-4.3-.64-8.59-.65-12.88,0-18.08,0-36.16,0-54.23,1-6.66.48-13.41,1.12-20.07.38-4,.2-8,.92-11.9,1-5.21.65-10.48,1.45-15.7.63-4.05.9-8.23,1.3-12.35.36-3.8,1-7.57,1.47-11.36.44-3.31.9-6.62,1.33-9.94.76-5.84,1.56-11.67,2.68-17.45,1.43-7.35,2.6-14.75,4-22.09,1.53-7.81,3.22-15.6,4.87-23.39,2.55-12,5.72-23.88,9-35.71,3.69-13.39,8.08-26.57,12.46-39.75,5.48-16.53,11.81-32.73,18.37-48.85,2.83-6.95,6-13.75,9.17-20.57,4.56-9.85,9.05-19.75,13.93-29.46,5-10,10.41-19.8,15.74-29.63a20.43,20.43,0,0,1,6.49-7.54,17.48,17.48,0,0,1,9.4-3.13c7.52-.22,15.09-.59,22.54.13a170.36,170.36,0,0,0,26.81.39c8.15-.49,16.28-.35,24.41-.55a22.7,22.7,0,0,1,6.19.5,17.51,17.51,0,0,0,4.29.25c20.64,0,41.28.13,61.91-.08,5.89-.06,11.78-.63,17.68-.86a16,16,0,0,0,11.11-5c3.39-3.59,6.54-7.41,9.79-11.14.52-.6.94-1.3,1.49-1.87,6.64-6.93,12.84-14.25,19.72-20.94,7.34-7.14,14.44-14.52,21.84-21.6,5.06-4.86,10.42-9.41,15.71-14,4.92-4.31,9.83-8.64,14.9-12.78q9.27-7.56,18.81-14.81c13-9.86,26.36-19.12,40.09-27.9,9.41-6,19.06-11.67,28.74-17.25,12.76-7.35,25.91-13.92,39.1-20.41,8.89-4.38,18-8.31,27.08-12.22q23.56-10.11,47.93-18.06c14.71-4.82,29.58-9.13,44.66-12.62q15.81-3.66,31.84-6.43c8.16-1.41,16.34-2.61,24.54-3.73,5.68-.77,11.38-1.33,17.08-2,6.33-.69,12.66-1.37,19-1.94,8.1-.73,16.21-1.25,24.29-2s16.27-.55,24.4-.79a17,17,0,0,0,4.76-.5,6.37,6.37,0,0,1,3.79-.06,23,23,0,0,0,6.66.55c4.32,0,8.64.18,13,.06,7.68-.21,15.29.89,22.94,1.23,7,.31,14,1.05,20.94,1.78,6.64.7,13.25,1.72,19.88,2.59,5.52.73,11.06,1.36,16.57,2.17,4.25.63,8.49,1.4,12.71,2.23,9.06,1.76,18.14,3.46,27.15,5.46,8.4,1.87,16.73,4.08,25.07,6.18,15.34,3.86,30.4,8.62,45.29,13.91q20.08,7.14,39.68,15.53c17.07,7.32,33.6,15.71,50,24.29,10.46,5.46,20.71,11.38,30.64,17.81,7.5,4.86,15.15,9.5,22.57,14.49,12.19,8.2,24.14,16.75,35.69,25.82,7.9,6.2,15.74,12.5,23.32,19.11,6.26,5.46,12.51,10.92,18.52,16.65,5.55,5.3,11.51,10.18,16.58,15.94,5.28,6,11.13,11.45,16.16,17.68,2.9,3.6,6.15,6.92,9.19,10.41,2,2.29,4,4.58,5.79,7,5,6.84,11.92,9.89,20.19,10.07,6.72.14,13.44,0,20.16,0q59,0,118.06-.07c2.38,0,4.82-.33,7.15-.26,4.06.11,8.31-.29,12.07,2.11a24.39,24.39,0,0,1,6.28,5.86A241.68,241.68,0,0,1,1661.93,641c3.65,6.21,6.9,12.63,10,19.13q6.4,13.67,11.86,27.74c9,23.4,16.61,47.3,24.49,71.09q6.18,18.62,11.19,37.61c2.49,9.4,4.88,18.83,7,28.32,1.92,8.71,3.59,17.47,5.29,26.22,1.28,6.57,2.73,13.12,3.53,19.74.69,5.69,2.14,11.28,2.35,17,.08,2.21.72,4.38,1,6.61.71,6.64,2,13.23,2.51,19.88.34,4.3.83,8.57,1.27,12.85.74,7.29.73,14.63,1.64,21.92.53,4.26.21,8.62.29,12.94a30.12,30.12,0,0,0,.62,7.62,17,17,0,0,1,.2,4.3c0,9.28,0,18.55,0,27.83a103.36,103.36,0,0,1-.62,12.9c-.62,4.72,0,9.6-.38,14.37-.59,6.82-.44,13.7-1.59,20.48a5.76,5.76,0,0,0-.12,1.43c.38,5.62-.93,11.12-1.18,16.7-.19,4.12-1,8.2-1.56,12.3-.44,3.64-.72,7.3-1.21,10.93-.78,5.83-1.65,11.65-2.53,17.47-.71,4.73-1.45,9.44-2.23,14.16-.6,3.61-1.22,7.22-1.94,10.81q-2.78,13.82-5.66,27.61c-3.55,16.86-8,33.5-13,50q-5.82,19.5-12.69,38.67c-4.72,13.07-9.89,26-15,38.86-2.29,5.79-4.91,11.45-7.47,17.13-4.54,10.05-9.18,20.06-14.46,29.75-5.42,10-10.34,20.21-15.55,30.29-3.43,6.66-8.76,10.17-16.54,10.13-25-.14-49.91-.06-74.87-.06ZM982.06,544.34H960.94q-128.37,0-256.76,0c-7.66,0-15.3-.27-23,.81-5.19.74-10.43,1.22-15.6,2.15A146.59,146.59,0,0,0,629.26,559a170.19,170.19,0,0,0-28.06,16.48,196.29,196.29,0,0,0-17.3,14.36,166.34,166.34,0,0,0-15.74,17.39,164.29,164.29,0,0,0-19.45,30.12c-2,4-3.86,8.08-5.59,12.2a121.51,121.51,0,0,0-5.77,16.73c-2,7.88-4,15.73-4.86,23.86A188.22,188.22,0,0,0,531,709.69q-.09,91.66,0,183.33,0,128.15,0,256.29,0,63.6,0,127.19a108,108,0,0,0,1.09,15.25q1.05,7.3,2.49,14.59A162.3,162.3,0,0,0,545.24,1340a170,170,0,0,0,29.36,45.23,172,172,0,0,0,56.94,41.41,203.62,203.62,0,0,0,21.53,8,148.45,148.45,0,0,0,17.68,4.11,124.47,124.47,0,0,0,21.37,2.26c2.4,0,4.8,0,7.2,0l238.53,0q143.26,0,286.52-.07c16.45,0,32.92.86,49.36-.78,5.23-.52,10.44-1.09,15.64-1.83a142.07,142.07,0,0,0,30-7.84,165.07,165.07,0,0,0,32-16.24,195.66,195.66,0,0,0,16.85-12.63,95.06,95.06,0,0,0,11.58-10.74c3.57-4.07,7.38-7.94,10.78-12.19a175.85,175.85,0,0,0,18.32-27.45,160.38,160.38,0,0,0,16-44,163.24,163.24,0,0,0,3.46-31.77q0-238.77,0-477.54c0-26.24-.1-52.48.07-78.71,0-7.69-1.3-15.28-1.07-23a1.94,1.94,0,0,0,0-.48c-1.23-5.92-1.46-12-2.57-18a141.69,141.69,0,0,0-5.47-20.8,158.73,158.73,0,0,0-12.26-27,186.14,186.14,0,0,0-25.17-33.68,149.38,149.38,0,0,0-11.5-10.85A184.59,184.59,0,0,0,1355.62,574a165,165,0,0,0-54.41-25.37c-10.84-2.77-21.84-4.62-33.1-4.31-1.76,0-3.52,0-5.28,0Z" transform="translate(-93.37 -214.14)"/><path class="cls-1" d="M982.06,544.34h280.77c1.76,0,3.52,0,5.28,0,11.26-.31,22.26,1.54,33.1,4.31A165,165,0,0,1,1355.62,574a184.59,184.59,0,0,1,14.68,11.53,149.38,149.38,0,0,1,11.5,10.85A186.14,186.14,0,0,1,1407,630.07a158.73,158.73,0,0,1,12.26,27,141.69,141.69,0,0,1,5.47,20.8c1.11,6,1.34,12,2.57,18a1.94,1.94,0,0,1,0,.48c-.23,7.68,1.11,15.27,1.07,23-.17,26.23-.07,52.47-.07,78.71q0,238.77,0,477.54a163.24,163.24,0,0,1-3.46,31.77,160.38,160.38,0,0,1-16,44,175.85,175.85,0,0,1-18.32,27.45c-3.4,4.25-7.21,8.12-10.78,12.19a95.06,95.06,0,0,1-11.58,10.74,195.66,195.66,0,0,1-16.85,12.63,165.07,165.07,0,0,1-32,16.24,142.07,142.07,0,0,1-30,7.84c-5.2.74-10.41,1.31-15.64,1.83-16.44,1.64-32.91.76-49.36.78q-143.26.19-286.52.07l-238.53,0c-2.4,0-4.8,0-7.2,0a124.47,124.47,0,0,1-21.37-2.26,148.45,148.45,0,0,1-17.68-4.11,203.62,203.62,0,0,1-21.53-8,172,172,0,0,1-56.94-41.41A170,170,0,0,1,545.24,1340a162.3,162.3,0,0,1-10.73-33.68q-1.44-7.27-2.49-14.59a108,108,0,0,1-1.09-15.25q-.1-63.6,0-127.19,0-128.14,0-256.29,0-91.66,0-183.33a188.22,188.22,0,0,1,1.54-19.52c.87-8.13,2.84-16,4.86-23.86a121.51,121.51,0,0,1,5.77-16.73c1.73-4.12,3.58-8.21,5.59-12.2a164.29,164.29,0,0,1,19.45-30.12,166.34,166.34,0,0,1,15.74-17.39,196.29,196.29,0,0,1,17.3-14.36A170.19,170.19,0,0,1,629.26,559a146.59,146.59,0,0,1,36.35-11.7c5.17-.93,10.41-1.41,15.6-2.15,7.67-1.08,15.31-.8,23-.81q128.39-.07,256.76,0ZM949.29,741.59q-18.7,0-37.42,0-23.49,0-47-.14a24.82,24.82,0,0,0-6.19.54,6.54,6.54,0,0,0-5.35,6,42,42,0,0,0-.23,5.26c0,14.24.09,28.47.08,42.7q0,51.81-.08,103.61a52.44,52.44,0,0,0,.18,5.75c.43,3.87,2.56,6,6.44,6.6a28,28,0,0,0,4.3.14c11-.2,22.07-.29,33.1.05a21.31,21.31,0,0,0,4.3-.21,7,7,0,0,0,6-5.43,23.77,23.77,0,0,0,.56-6.66q-.07-24.46-.17-48.92a26.78,26.78,0,0,1,.27-4.3,5.71,5.71,0,0,1,4.17-4.77,15.88,15.88,0,0,1,5.21-.62c9.59.11,19.18.31,28.77.31,11.67,0,23.34-.22,35-.3a23,23,0,0,1,4.77.33c3.58.73,5.22,2.56,5.66,6.16a36.37,36.37,0,0,1,.14,4.31q-.06,24.71-.15,49.4a17.72,17.72,0,0,0,.54,4.75A7.45,7.45,0,0,0,999,912a29.31,29.31,0,0,0,4.78.09c9.91-.38,19.82-.4,29.73,0a27.32,27.32,0,0,0,4.79-.1c3.49-.46,5.44-2.3,6.11-5.79a27,27,0,0,0,.47-5.24c0-4-.21-8-.22-12q0-23.26,0-46.53,0-40.29,0-80.59c0-2.71.2-5.43.2-8.14a42.21,42.21,0,0,0-.3-5.74c-.53-3.9-1.88-5.37-5.61-6.1a23.77,23.77,0,0,0-4.76-.38c-10.56,0-21.11.1-31.66.11Q975.92,741.63,949.29,741.59Zm-299.43,84q0,36,0,72a44.93,44.93,0,0,0,.12,4.79c.53,4.86,2.82,7.18,7.64,7.69a46.25,46.25,0,0,0,5.27.13q44.37-.06,88.76-.15c8.63,0,17.26-.13,25.9-.21a17.83,17.83,0,0,0,14.28-6.63,29.42,29.42,0,0,0,1.91-2.76q21.38-33.29,42.75-66.59a23.86,23.86,0,0,0,1.2-2.08,11.9,11.9,0,0,0-.14-11.91c-.62-1.12-1.32-2.19-2-3.26Q814.44,784,794,750.93c-.76-1.22-1.5-2.46-2.34-3.62a13.77,13.77,0,0,0-11.42-6c-1.28,0-2.56,0-3.84,0-19.67.06-39.34.17-59,.16-18.39,0-36.78-.12-55.17-.16a34.26,34.26,0,0,0-5.73.36c-3.76.64-5.89,3.06-6.44,6.77a36.91,36.91,0,0,0-.22,5.26Q649.85,789.65,649.86,825.63ZM978.48,1194a9,9,0,0,0-.83-1.71c-4.68-5.46-9.37-10.9-13.71-16.66a21.4,21.4,0,0,0-13.72-8.14,43.12,43.12,0,0,0-10-.65c-3,.17-6.07.34-9.1.34q-32.87,0-65.73,0c-1.44,0-2.88,0-4.31-.12-2.87-.23-5.76-.38-8.59-.84-4.8-.77-7.67-3.66-8.6-8.45-.09-.47-.12-1-.2-1.42-1.14-7.15-.86-14.35-.79-21.54a14.82,14.82,0,0,1,.73-3.75,7.86,7.86,0,0,1,6.33-5.86,33.54,33.54,0,0,1,7.62-.79c10.55.2,21.1.47,31.65.5,17.27.06,34.54,0,51.82-.09,4.15,0,8.31,0,12.46-.21s8-.49,12-.85c1.86-.17,2.2-.6,2.21-2.44,0-5.75,0-11.51,0-17.27a13.69,13.69,0,0,0-.17-1.91,5.58,5.58,0,0,0-4.88-5.13,44.2,44.2,0,0,0-8.12-.51q-43.43,0-86.84,0c-3.2,0-6.4-.12-9.6-.15a29.75,29.75,0,0,1-7.09-1.09,9.11,9.11,0,0,1-6.85-6.71,23.84,23.84,0,0,1-.56-2.82c-1.18-7.47-.63-15-.59-22.5a5,5,0,0,1,.12-1c.9-5.11,3.48-7.57,8.63-8.06a51.63,51.63,0,0,1,5.28-.11q40.54,0,81.08.06c2.08,0,4.16,0,6.23-.1,10.26-.75,18.75-4.95,25.19-13.06a48.24,48.24,0,0,0,6.55-11.12c.35-.81.94-1.69.19-2.86a7.07,7.07,0,0,0-1.62-.48c-3.35-.23-6.7-.54-10.05-.54-32,0-64,0-96,0-22.23,0-44.45-.18-66.68-.24a34.09,34.09,0,0,0-5.72.38c-4.34.73-6.48,2.93-7,7.27a47.79,47.79,0,0,0-.25,6.22c0,19,.17,38.06.15,57.09,0,28.63-.16,57.26-.23,85.88a37.09,37.09,0,0,0,.3,5.27c.59,4,2.76,6.68,6.89,7.6a25.56,25.56,0,0,0,5.7.65c3.36,0,6.72-.09,10.08-.09q40.29-.07,80.6-.12,35.26,0,70.53,0A68.57,68.57,0,0,0,978.48,1194Zm267-283.89a9.08,9.08,0,0,0,2.18-6.27c-.05-1.6.08-3.2.08-4.8q.09-74.37.17-148.76a27.15,27.15,0,0,0-.18-3.83,5.28,5.28,0,0,0-4.61-4.83,23.78,23.78,0,0,0-4.77-.24,220,220,0,0,1-29.72-.21,20.12,20.12,0,0,0-4.78.14,7.47,7.47,0,0,0-6.78,6.46,36.74,36.74,0,0,0-.55,6.2c0,2.39.24,4.79.25,7.19q.06,32.87.08,65.74c0,.73.26,1.63-1,2.07-1.22-.75-2.59-1.56-3.92-2.42l-89.12-58.3q-19.07-12.48-38.15-24.93c-1.11-.73-2.09-2-3.93-1.51V903.56c0,1.28,0,2.56,0,3.84.07,2.45.21,2.57,2.86,2.65h1l38.87.08a19.58,19.58,0,0,0,3.34-.18c3.46-.62,5.36-2.57,5.83-6.06a40.25,40.25,0,0,0,.22-5.27q0-29.52-.08-59c0-2.24,0-4.48.11-6.72.06-1.6.25-3.19.4-4.78s.31-3.05.54-5.28C1158,852.07,1201.58,881.11,1245.46,910.14ZM691.68,1054.31a6,6,0,0,1-.19.88,1.36,1.36,0,0,1-.26.41L568.86,1191.45a7.13,7.13,0,0,0-.58.75.77.77,0,0,0-.19.42,1.39,1.39,0,0,0,.13.46c4.61.63,185.56,1,206.68.36.43,0,1,.08,1.17-.54s-.13-.91-.41-1.25c-4.42-5.27-8.73-10.61-12.82-16.15-3.46-4.7-8.38-7.27-14.16-8.23a45.78,45.78,0,0,0-8.59-.64c-9.91.23-19.82.56-29.74.56-16.15,0-32.3-.2-48.45-.38-2.39,0-4.78-.34-7.17-.56a1,1,0,0,1-.59-1.46c.71-.87,1.46-1.7,2.21-2.54l93.21-104q12.81-14.3,25.6-28.61c.78-.87,2-1.59,1.77-3.37H575.38c-1.28,0-2.56,0-3.84,0s-1.74.75-1.26,1.87a54,54,0,0,0,7.81,13.15,31,31,0,0,0,19,11.11,71,71,0,0,0,12.43.77q35.51,0,71,0A45.73,45.73,0,0,1,691.68,1054.31Zm392.46-28.2c-11.73-.11-25.48-.28-39.23-.37q-22.54-.13-45.1-.13a24.41,24.41,0,0,0-4.76.39c-3.4.67-4.92,2.36-5.3,5.85a48.93,48.93,0,0,0-.15,5.28q0,41.73,0,83.48,0,31.42-.08,62.85a34.7,34.7,0,0,0,.22,4.79c.5,3.48,2.43,5.4,5.92,6a24.47,24.47,0,0,0,3.83.22c3.2,0,6.4-.06,9.59-.07l107.48-.08h31.67c1.12,0,2.24,0,3.36,0a13.12,13.12,0,0,0,11-4.8c4.78-5.59,9.73-11,14.6-16.55a11,11,0,0,0,1.43-1.9,2.73,2.73,0,0,0-1.67-3.45,17.18,17.18,0,0,0-2.87-.22c-8.63-.18-17.26-.48-25.89-.48-30.7,0-61.41-.21-92.11.3a34.41,34.41,0,0,1-5.71-.56c-3.49-.52-5.28-2.83-5.81-6.12a32.88,32.88,0,0,1-.21-5.26q.06-32.38.14-64.77c0-8.79-.11-17.59-.14-26.38a29.41,29.41,0,0,1,.24-4.79,6.65,6.65,0,0,1,5.6-5.81,25.3,25.3,0,0,1,4.77-.37c5.28,0,10.55.06,15.83.06q36.71,0,73.41,0a24.79,24.79,0,0,0,5.72-.45c12.57-3,21.21-10.69,26.07-22.6,1.46-3.58,1.1-4-3-4-.64,0-1.28,0-1.92,0Zm206.52.44H1189.45c-1.43,0-2.87,0-4.31,0-1.27.05-1.74.71-1.26,1.85a51.4,51.4,0,0,0,7.54,12.75,31.41,31.41,0,0,0,17.14,10.79,37,37,0,0,0,9,1.2c6.87,0,13.74,0,20.62,0,6.23,0,12.47-.07,18.7,0,5,.08,6.52,1.45,7.07,6.49a66,66,0,0,1,.23,7.18q0,51.81,0,103.61c0,4.31-.07,8.63-.06,13a18.91,18.91,0,0,0,.7,5.68,7,7,0,0,0,6.63,5.31,28.18,28.18,0,0,0,4.31,0,229.91,229.91,0,0,1,29.23,0,36.46,36.46,0,0,0,4.31,0c4.81-.29,7.36-2.43,8.35-7.07a21.12,21.12,0,0,0,.35-3.82c0-2.71,0-5.43,0-8.15q-.07-43.89-.14-87.77c0-7.84,0-15.67.08-23.51a23.41,23.41,0,0,1,.55-6.18,5.4,5.4,0,0,1,4.13-4.18,24.37,24.37,0,0,1,6.19-.56c11.35,0,22.7,0,34.05,0a32.17,32.17,0,0,0,6.21-.43c13.49-2.72,22.42-10.88,27.57-23.45a12.24,12.24,0,0,0,.41-1.38,1,1,0,0,0-.91-1.34c-1.43-.1-2.87-.07-4.31-.07Zm-661-198.91h.08q0-30.45,0-60.89c0-5.76-.1-11.51,0-17.26a6.37,6.37,0,0,0-2.26-5,9.21,9.21,0,0,0-6-2.72c-2.07-.1-4.15-.25-6.22-.26-8.79-.06-17.57.24-26.36-.22a19,19,0,0,0-4.76.34,7.86,7.86,0,0,0-6.49,6.26A28,28,0,0,0,577,755c.12,11.5.25,23,.28,34.51,0,8.79-.12,17.57-.13,26.36q0,30.93,0,61.85c0,7,.29,14.06.41,21.08a15.56,15.56,0,0,0,1.92,6.85c1.25,2.46,2.92,4.08,5.93,4,2.23-.06,4.47.3,6.7.31,10.87.07,21.74.09,32.6.12.48,0,1,0,1.44,0a3.06,3.06,0,0,0,3.16-2.38,13.34,13.34,0,0,0,.34-4.75Q629.72,865.28,629.7,827.64Z" transform="translate(-93.37 -214.14)"/><path class="cls-3" d="M949.29,741.59q26.63,0,53.25,0c10.55,0,21.1-.1,31.66-.11a23.77,23.77,0,0,1,4.76.38c3.73.73,5.08,2.2,5.61,6.1a42.21,42.21,0,0,1,.3,5.74c0,2.71-.2,5.43-.2,8.14q0,40.3,0,80.59,0,23.26,0,46.53c0,4,.22,8,.22,12a27,27,0,0,1-.47,5.24c-.67,3.49-2.62,5.33-6.11,5.79a27.32,27.32,0,0,1-4.79.1c-9.91-.4-19.82-.38-29.73,0A29.31,29.31,0,0,1,999,912a7.45,7.45,0,0,1-6.8-5.83,17.72,17.72,0,0,1-.54-4.75q.08-24.69.15-49.4a36.37,36.37,0,0,0-.14-4.31c-.44-3.6-2.08-5.43-5.66-6.16a23,23,0,0,0-4.77-.33c-11.67.08-23.34.29-35,.3-9.59,0-19.18-.2-28.77-.31a15.88,15.88,0,0,0-5.21.62,5.71,5.71,0,0,0-4.17,4.77,26.78,26.78,0,0,0-.27,4.3q.06,24.45.17,48.92a23.77,23.77,0,0,1-.56,6.66,7,7,0,0,1-6,5.43,21.31,21.31,0,0,1-4.3.21c-11-.34-22.07-.25-33.1-.05a28,28,0,0,1-4.3-.14c-3.88-.56-6-2.73-6.44-6.6a52.44,52.44,0,0,1-.18-5.75q0-51.81.08-103.61c0-14.23-.06-28.46-.08-42.7a42,42,0,0,1,.23-5.26,6.54,6.54,0,0,1,5.35-6,24.82,24.82,0,0,1,6.19-.54q23.5.07,47,.14Q930.59,741.62,949.29,741.59Zm.45,28.32H918.09a36.44,36.44,0,0,0-4.31.12c-3.52.44-5.44,2.4-5.84,5.9a27.22,27.22,0,0,0-.08,3.83c.22,7.51.29,15,0,22.53a31,31,0,0,0,.08,4.31,5.77,5.77,0,0,0,5.5,5.63,36.2,36.2,0,0,0,4.78.15q14.87,0,29.73,0c9,0,17.9-.12,26.85-.14a39.62,39.62,0,0,0,8.55-1.06c4.69-1.06,7.58-4,8.28-8.79a53.82,53.82,0,0,0,.72-8.1c-.07-5.59-.32-11.18-.68-16.76-.34-5.31-2.64-7.43-7.86-7.61-1.12,0-2.24,0-3.36,0Z" transform="translate(-93.37 -214.14)"/><path class="cls-3" d="M649.86,825.63q0-36,0-72a36.91,36.91,0,0,1,.22-5.26c.55-3.71,2.68-6.13,6.44-6.77a34.26,34.26,0,0,1,5.73-.36c18.39,0,36.78.16,55.17.16,19.67,0,39.34-.1,59-.16,1.28,0,2.56,0,3.84,0a13.77,13.77,0,0,1,11.42,6c.84,1.16,1.58,2.4,2.34,3.62q20.41,33.06,41.5,65.68c.7,1.07,1.4,2.14,2,3.26a11.9,11.9,0,0,1,.14,11.91,23.86,23.86,0,0,1-1.2,2.08q-21.36,33.3-42.75,66.59a29.42,29.42,0,0,1-1.91,2.76,17.83,17.83,0,0,1-14.28,6.63c-8.64.08-17.27.19-25.9.21q-44.39.11-88.76.15a46.25,46.25,0,0,1-5.27-.13c-4.82-.51-7.11-2.83-7.64-7.69a44.93,44.93,0,0,1-.12-4.79Q649.85,861.61,649.86,825.63Zm52.69-.53h.18c0,10.87,0,21.74,0,32.61,0,5.27-.25,10.54-.2,15.82s1.87,7.54,7,8.76a75.25,75.25,0,0,0,9.43,1.63c15.34,1.59,28.77-2.43,39.76-13.64a99.75,99.75,0,0,0,18.92-27.5,37.5,37.5,0,0,0,.65-32,97.66,97.66,0,0,0-17.57-27.84c-10.35-11.36-23.28-16.48-38.61-15.46-4.28.29-8.49,1.2-12.84,1.13-4-.06-6.1,2.18-6.6,6.18a30.51,30.51,0,0,0-.14,3.83Z" transform="translate(-93.37 -214.14)"/><path class="cls-3" d="M978.48,1194a68.57,68.57,0,0,1-15.58,1.89q-35.26-.08-70.53,0-40.3,0-80.6.12c-3.36,0-6.72.07-10.08.09a25.56,25.56,0,0,1-5.7-.65c-4.13-.92-6.3-3.57-6.89-7.6a37.09,37.09,0,0,1-.3-5.27c.07-28.62.2-57.25.23-85.88,0-19-.11-38.06-.15-57.09a47.79,47.79,0,0,1,.25-6.22c.55-4.34,2.69-6.54,7-7.27a34.09,34.09,0,0,1,5.72-.38c22.23.06,44.45.21,66.68.24,32,0,64,0,96,0,3.35,0,6.7.31,10.05.54a7.07,7.07,0,0,1,1.62.48c.75,1.17.16,2-.19,2.86a48.24,48.24,0,0,1-6.55,11.12c-6.44,8.11-14.93,12.31-25.19,13.06-2.07.15-4.15.11-6.23.1q-40.54,0-81.08-.06a51.63,51.63,0,0,0-5.28.11c-5.15.49-7.73,3-8.63,8.06a5,5,0,0,0-.12,1c0,7.51-.59,15,.59,22.5a23.84,23.84,0,0,0,.56,2.82,9.11,9.11,0,0,0,6.85,6.71,29.75,29.75,0,0,0,7.09,1.09c3.2,0,6.4.15,9.6.15q43.41,0,86.84,0a44.2,44.2,0,0,1,8.12.51,5.58,5.58,0,0,1,4.88,5.13,13.69,13.69,0,0,1,.17,1.91c0,5.76,0,11.52,0,17.27,0,1.84-.35,2.27-2.21,2.44-4,.36-8,.68-12,.85s-8.31.19-12.46.21c-17.28.05-34.55.15-51.82.09-10.55,0-21.1-.3-31.65-.5a33.54,33.54,0,0,0-7.62.79,7.86,7.86,0,0,0-6.33,5.86,14.82,14.82,0,0,0-.73,3.75c-.07,7.19-.35,14.39.79,21.54.08.47.11.95.2,1.42.93,4.79,3.8,7.68,8.6,8.45,2.83.46,5.72.61,8.59.84,1.43.11,2.87.12,4.31.12q32.86,0,65.73,0c3,0,6.07-.17,9.1-.34a43.12,43.12,0,0,1,10,.65,21.4,21.4,0,0,1,13.72,8.14c4.34,5.76,9,11.2,13.71,16.66A9,9,0,0,1,978.48,1194Z" transform="translate(-93.37 -214.14)"/><path class="cls-3" d="M1245.46,910.14c-43.88-29-87.48-58.07-131.69-87.31-.23,2.23-.39,3.75-.54,5.28s-.34,3.18-.4,4.78c-.09,2.24-.11,4.48-.11,6.72q0,29.5.08,59a40.25,40.25,0,0,1-.22,5.27c-.47,3.49-2.37,5.44-5.83,6.06a19.58,19.58,0,0,1-3.34.18l-38.87-.08h-1c-2.65-.08-2.79-.2-2.86-2.65,0-1.28,0-2.56,0-3.84V741.84c1.84-.52,2.82.78,3.93,1.51q19.11,12.42,38.15,24.93l89.12,58.3c1.33.86,2.7,1.67,3.92,2.42,1.26-.44,1-1.34,1-2.07q0-32.88-.08-65.74c0-2.4-.28-4.8-.25-7.19a36.74,36.74,0,0,1,.55-6.2,7.47,7.47,0,0,1,6.78-6.46,20.12,20.12,0,0,1,4.78-.14,220,220,0,0,0,29.72.21,23.78,23.78,0,0,1,4.77.24,5.28,5.28,0,0,1,4.61,4.83,27.15,27.15,0,0,1,.18,3.83q-.08,74.38-.17,148.76c0,1.6-.13,3.2-.08,4.8A9.08,9.08,0,0,1,1245.46,910.14Z" transform="translate(-93.37 -214.14)"/><path class="cls-3" d="M691.68,1054.31a45.73,45.73,0,0,0-11.1-1.08q-35.51,0-71,0a71,71,0,0,1-12.43-.77,31,31,0,0,1-19-11.11,54,54,0,0,1-7.81-13.15c-.48-1.12,0-1.82,1.26-1.87s2.56,0,3.84,0H776.93c.24,1.78-1,2.5-1.77,3.37q-12.76,14.34-25.6,28.61l-93.21,104c-.75.84-1.5,1.67-2.21,2.54a1,1,0,0,0,.59,1.46c2.39.22,4.78.54,7.17.56,16.15.18,32.3.38,48.45.38,9.92,0,19.83-.33,29.74-.56a45.78,45.78,0,0,1,8.59.64c5.78,1,10.7,3.53,14.16,8.23,4.09,5.54,8.4,10.88,12.82,16.15.28.34.66.71.41,1.25s-.74.53-1.17.54c-21.12.6-202.07.27-206.68-.36a1.39,1.39,0,0,1-.13-.46.77.77,0,0,1,.19-.42,7.13,7.13,0,0,1,.58-.75L691.23,1055.6a1.36,1.36,0,0,0,.26-.41A6,6,0,0,0,691.68,1054.31Z" transform="translate(-93.37 -214.14)"/><path class="cls-3" d="M1084.14,1026.11h86.94c.64,0,1.28,0,1.92,0,4.06.08,4.42.46,3,4-4.86,11.91-13.5,19.57-26.07,22.6a24.79,24.79,0,0,1-5.72.45q-36.7,0-73.41,0c-5.28,0-10.55-.08-15.83-.06a25.3,25.3,0,0,0-4.77.37,6.65,6.65,0,0,0-5.6,5.81,29.41,29.41,0,0,0-.24,4.79c0,8.79.15,17.59.14,26.38q0,32.38-.14,64.77a32.88,32.88,0,0,0,.21,5.26c.53,3.29,2.32,5.6,5.81,6.12a34.41,34.41,0,0,0,5.71.56c30.7-.51,61.41-.32,92.11-.3,8.63,0,17.26.3,25.89.48a17.18,17.18,0,0,1,2.87.22,2.73,2.73,0,0,1,1.67,3.45,11,11,0,0,1-1.43,1.9c-4.87,5.52-9.82,11-14.6,16.55a13.12,13.12,0,0,1-11,4.8c-1.12,0-2.24,0-3.36,0h-31.67l-107.48.08c-3.19,0-6.39.08-9.59.07a24.47,24.47,0,0,1-3.83-.22c-3.49-.55-5.42-2.47-5.92-6a34.7,34.7,0,0,1-.22-4.79q0-31.43.08-62.85,0-41.74,0-83.48a48.93,48.93,0,0,1,.15-5.28c.38-3.49,1.9-5.18,5.3-5.85a24.41,24.41,0,0,1,4.76-.39q22.55,0,45.1.13C1058.66,1025.83,1072.41,1026,1084.14,1026.11Z" transform="translate(-93.37 -214.14)"/><path class="cls-3" d="M1290.66,1026.55h101.21c1.44,0,2.88,0,4.31.07a1,1,0,0,1,.91,1.34,12.24,12.24,0,0,1-.41,1.38c-5.15,12.57-14.08,20.73-27.57,23.45a32.17,32.17,0,0,1-6.21.43c-11.35,0-22.7,0-34.05,0a24.37,24.37,0,0,0-6.19.56,5.4,5.4,0,0,0-4.13,4.18,23.41,23.41,0,0,0-.55,6.18c0,7.84-.09,15.67-.08,23.51q.06,43.88.14,87.77c0,2.72,0,5.44,0,8.15a21.12,21.12,0,0,1-.35,3.82c-1,4.64-3.54,6.78-8.35,7.07a36.46,36.46,0,0,1-4.31,0,229.91,229.91,0,0,0-29.23,0,28.18,28.18,0,0,1-4.31,0,7,7,0,0,1-6.63-5.31,18.91,18.91,0,0,1-.7-5.68c0-4.32.06-8.64.06-13q0-51.81,0-103.61a66,66,0,0,0-.23-7.18c-.55-5-2-6.41-7.07-6.49-6.23-.11-12.47,0-18.7,0-6.88,0-13.75,0-20.62,0a37,37,0,0,1-9-1.2,31.41,31.41,0,0,1-17.14-10.79,51.4,51.4,0,0,1-7.54-12.75c-.48-1.14,0-1.8,1.26-1.85,1.44,0,2.88,0,4.31,0Z" transform="translate(-93.37 -214.14)"/><path class="cls-3" d="M629.7,827.64q0,37.64,0,75.27a13.34,13.34,0,0,1-.34,4.75,3.06,3.06,0,0,1-3.16,2.38c-.48,0-1,0-1.44,0-10.86,0-21.73,0-32.6-.12-2.23,0-4.47-.37-6.7-.31-3,.08-4.68-1.54-5.93-4a15.56,15.56,0,0,1-1.92-6.85c-.12-7-.39-14-.41-21.08q-.08-30.91,0-61.85c0-8.79.16-17.57.13-26.36,0-11.51-.16-23-.28-34.51a28,28,0,0,1,.64-7.13,7.86,7.86,0,0,1,6.49-6.26,19,19,0,0,1,4.76-.34c8.79.46,17.57.16,26.36.22,2.07,0,4.15.16,6.22.26a9.21,9.21,0,0,1,6,2.72,6.37,6.37,0,0,1,2.26,5c-.06,5.75,0,11.5,0,17.26q0,30.45,0,60.89Z" transform="translate(-93.37 -214.14)"/><path class="cls-1" d="M949.74,769.91h30.69c1.12,0,2.24,0,3.36,0,5.22.18,7.52,2.3,7.86,7.61.36,5.58.61,11.17.68,16.76a53.82,53.82,0,0,1-.72,8.1c-.7,4.82-3.59,7.73-8.28,8.79a39.62,39.62,0,0,1-8.55,1.06c-8.95,0-17.9.12-26.85.14q-14.86,0-29.73,0a36.2,36.2,0,0,1-4.78-.15,5.77,5.77,0,0,1-5.5-5.63,31,31,0,0,1-.08-4.31c.31-7.51.24-15,0-22.53a27.22,27.22,0,0,1,.08-3.83c.4-3.5,2.32-5.46,5.84-5.9a36.44,36.44,0,0,1,4.31-.12Z" transform="translate(-93.37 -214.14)"/><path class="cls-1" d="M702.55,825.1V778.59a30.51,30.51,0,0,1,.14-3.83c.5-4,2.62-6.24,6.6-6.18,4.35.07,8.56-.84,12.84-1.13,15.33-1,28.26,4.1,38.61,15.46a97.66,97.66,0,0,1,17.57,27.84,37.5,37.5,0,0,1-.65,32,99.75,99.75,0,0,1-18.92,27.5c-11,11.21-24.42,15.23-39.76,13.64a75.25,75.25,0,0,1-9.43-1.63c-5.16-1.22-7-3.48-7-8.76s.18-10.55.2-15.82c0-10.87,0-21.74,0-32.61Z" transform="translate(-93.37 -214.14)"/></svg>